<svg version="1.0" xmlns="http://www.w3.org/2000/svg"
 width="300.000000pt" height="300.000000pt" viewBox="0 0 300.000000 300.000000"
 preserveAspectRatio="xMidYMid meet">
<g transform="translate(0.000000,300.000000) scale(0.100000,-0.100000)"
fill="#6aa84f" stroke="none">
<path d="M0 2701 c0 -6 33 -57 73 -113 143 -201 315 -464 352 -538 86 -171 79
-146 56 -200 -13 -30 -23 -82 -27 -143 -4 -58 -11 -94 -17 -90 -12 7 0 -52 19
-91 8 -16 14 -35 14 -43 0 -7 4 -13 9 -13 9 0 5 45 -5 62 -3 5 0 15 6 23 10
12 10 18 0 30 -11 13 -15 13 -22 3 -7 -9 -8 -5 -4 12 3 14 6 32 6 40 0 12 2
12 9 1 7 -10 10 -10 16 -1 4 7 2 15 -4 19 -8 5 -9 15 -3 32 5 13 7 30 5 36 -3
7 2 22 11 35 9 13 13 31 9 46 -5 20 -3 23 8 17 11 -7 11 -5 -1 10 -14 17 -13
18 3 12 12 -5 17 -1 17 13 0 10 4 22 10 25 5 3 9 -9 8 -30 -1 -19 2 -38 5 -42
8 -7 10 35 7 120 -1 32 3 64 10 71 6 8 15 66 20 130 5 63 14 135 20 158 12 56
12 78 0 78 -6 0 -10 -6 -9 -12 2 -7 -3 -38 -10 -68 -7 -30 -16 -106 -21 -169
-7 -95 -12 -117 -30 -136 -18 -19 -20 -27 -10 -45 6 -11 9 -26 6 -33 -3 -9 -5
-9 -5 0 -1 7 -11 23 -24 37 -13 13 -41 60 -62 103 -76 150 -445 693 -445 654z"/>
<path d="M2477 2421 c-25 -26 -55 -68 -67 -92 -70 -137 -216 -309 -465 -549
-124 -120 -166 -165 -224 -238 -29 -38 -35 -41 -50 -29 -20 17 -47 16 -43 -2
2 -9 -3 -11 -13 -7 -9 3 -13 2 -10 -4 9 -14 21 -12 38 5 13 13 17 13 27 0 9
-11 8 -19 -7 -37 -10 -13 -25 -24 -33 -26 -26 -6 -42 -24 -29 -32 7 -5 9 -21
4 -49 -4 -23 -11 -39 -16 -35 -5 3 -9 0 -9 -6 0 -15 23 -54 38 -63 10 -7 10
-12 1 -23 -10 -12 -1 -14 60 -14 39 0 74 0 77 1 4 0 11 -5 15 -13 7 -11 11
-10 19 2 6 10 10 11 10 3 0 -7 5 -13 10 -13 6 0 10 7 10 15 0 9 -10 14 -27 15
-16 0 -49 1 -75 2 -32 0 -46 4 -41 12 3 6 0 6 -8 -1 -13 -13 -38 -19 -26 -7 3
4 -5 22 -18 41 -20 30 -22 40 -13 62 6 14 11 38 12 54 0 15 5 28 11 30 9 2 52
48 91 96 10 13 38 44 62 68 23 24 42 48 42 53 0 5 9 12 20 15 11 3 20 13 20
20 0 8 4 17 10 20 6 4 7 -1 4 -12 -3 -10 3 -3 15 15 13 20 26 30 33 26 7 -5 9
-2 5 8 -7 21 39 61 63 55 12 -3 20 2 23 13 3 13 0 17 -10 13 -9 -3 -1 9 16 26
28 28 34 31 48 19 9 -7 14 -8 10 -2 -8 14 36 57 48 47 4 -5 5 -3 2 3 -3 6 14
32 38 59 36 39 46 44 51 31 6 -15 8 -15 25 3 23 24 23 28 4 28 -8 0 -12 -4 -9
-8 2 -4 0 -10 -6 -14 -25 -15 -7 27 24 56 19 17 33 37 30 43 -2 6 6 22 17 36
11 14 18 19 14 13 -3 -7 -1 -13 5 -13 6 0 8 -5 5 -10 -4 -6 -11 -8 -16 -4 -5
3 -9 2 -8 -3 3 -19 -2 -32 -26 -57 -15 -16 -19 -26 -11 -26 7 0 25 18 40 40
15 23 38 51 51 62 14 12 25 26 25 32 0 5 -11 -1 -25 -14 l-25 -23 0 27 c0 15
3 25 8 23 9 -6 26 13 30 33 6 28 26 40 40 24 10 -11 9 -17 -7 -33 -12 -12 -15
-23 -10 -28 6 -6 -3 -27 -24 -54 -18 -24 -43 -61 -56 -81 -12 -21 -27 -38 -32
-38 -6 0 -8 -4 -5 -9 3 -5 -4 -27 -17 -49 -19 -34 -25 -39 -42 -30 -19 9 -19
9 0 -7 17 -14 18 -18 5 -28 -8 -7 -16 -18 -17 -24 -2 -7 -21 -42 -43 -78 -22
-36 -40 -67 -40 -70 0 -11 -114 -175 -122 -175 -4 0 -8 -4 -8 -10 0 -20 -178
-210 -197 -210 -6 0 -13 -4 -15 -9 -1 -5 -19 -18 -38 -30 -20 -12 -28 -21 -19
-21 28 0 130 82 207 166 78 84 184 234 247 349 21 39 59 102 84 140 62 95 68
105 87 143 10 19 23 36 30 39 7 2 10 12 7 20 -4 10 -2 14 4 10 6 -4 25 11 42
33 18 22 51 50 74 61 48 25 75 46 89 73 13 25 -10 11 -35 -21 -10 -13 -27 -23
-38 -23 -10 0 -36 -15 -57 -34 -28 -25 -42 -32 -52 -25 -12 7 -11 10 7 15 12
3 24 13 28 22 3 9 3 13 -1 10 -3 -4 -13 0 -21 8 -14 13 -12 17 12 38 17 15 25
28 20 36 -5 8 -4 11 3 6 7 -4 10 3 7 23 -2 19 1 30 8 28 6 -1 11 5 12 13 0 17
41 40 70 39 20 0 20 0 1 -12 -11 -7 -33 -25 -50 -40 -22 -20 -25 -25 -9 -18
12 6 25 16 28 21 4 6 10 8 15 5 5 -3 18 3 30 15 16 16 18 23 8 39 -6 10 -19
18 -27 16 -9 -1 -21 2 -27 6 -7 6 -27 -8 -57 -40z m-25 -88 c-5 -32 -20 -53
-36 -53 -7 0 -6 3 2 8 7 5 14 18 17 30 4 22 13 42 19 42 2 0 1 -12 -2 -27z
m-32 -183 c-6 -11 -13 -20 -16 -20 -2 0 0 9 6 20 6 11 13 20 16 20 2 0 0 -9
-6 -20z"/>
<path d="M2612 2413 c-7 -7 -12 -21 -12 -32 0 -14 5 -18 19 -14 17 4 19 -1 19
-39 -1 -106 52 -284 191 -640 34 -86 75 -214 92 -284 23 -97 36 -134 55 -153
l25 -24 -6 39 c-4 21 -8 52 -11 68 -2 18 1 33 8 37 10 6 9 11 -3 21 -25 20
-30 46 -12 57 14 7 13 10 -5 15 -15 5 -22 16 -22 31 0 22 3 24 25 15 38 -15
30 -2 -10 14 -28 12 -35 21 -35 43 0 15 -7 37 -15 47 -8 11 -15 32 -15 48 0
15 -4 28 -9 28 -11 0 -42 86 -34 94 4 3 -1 14 -10 24 -9 10 -20 34 -23 53 -4
19 -13 43 -21 54 -7 11 -13 29 -13 40 0 12 -4 25 -9 31 -16 17 -51 147 -65
241 -7 51 -18 98 -24 105 -6 7 -10 15 -10 18 1 3 -4 21 -10 40 -13 37 -38 47
-60 23z m55 -83 c-3 -12 0 -20 7 -20 6 0 12 -8 12 -17 0 -10 4 -43 7 -73 4
-34 4 -47 -2 -35 -5 11 -7 23 -4 28 2 4 0 7 -4 7 -11 0 -32 100 -26 117 8 21
16 15 10 -7z m62 -280 c0 -8 -5 -4 -12 10 -8 14 -11 32 -8 40 4 11 7 8 12 -10
4 -14 7 -32 8 -40z m29 -81 c-3 -8 -7 -3 -11 10 -4 17 -3 21 5 13 5 -5 8 -16
6 -23z m22 -59 c0 -5 -4 -10 -10 -10 -5 0 -10 5 -10 10 0 6 5 10 10 10 6 0 10
-4 10 -10z m18 -51 c4 -24 3 -24 -12 -4 -19 24 -20 38 -3 33 6 -3 13 -15 15
-29z m17 -59 c3 -5 1 -10 -4 -10 -6 0 -11 5 -11 10 0 6 2 10 4 10 3 0 8 -4 11
-10z"/>
<path d="M2194 2361 c-17 -10 -53 -45 -80 -76 -61 -72 -202 -178 -364 -274
-69 -41 -137 -83 -153 -93 -25 -17 -41 -18 -190 -13 -136 5 -159 4 -142 -7 15
-10 59 -12 175 -10 85 2 217 4 292 4 76 1 136 4 133 7 -2 4 59 72 136 151 76
80 139 149 139 153 0 5 4 6 9 2 5 -3 12 -1 16 5 3 5 0 10 -7 10 -7 1 0 12 17
25 36 29 29 44 -8 15 -14 -11 -28 -16 -31 -11 -6 10 42 69 51 63 2 -2 8 0 11
4 4 4 1 4 -5 0 -7 -4 -13 -3 -13 3 0 14 34 31 61 31 22 0 21 -2 -11 -31 -35
-30 -35 -30 -3 -10 50 34 72 26 31 -11 -18 -15 -19 -18 -5 -14 29 9 19 -8 -21
-34 -41 -28 -62 -51 -56 -62 2 -3 -11 -16 -29 -27 -19 -11 -76 -67 -127 -123
-51 -57 -104 -114 -118 -126 l-25 -24 33 4 c24 2 45 16 79 52 71 76 110 117
185 195 63 65 66 72 40 65 -42 -10 -19 10 29 26 26 8 42 21 49 38 5 15 14 34
18 43 6 12 1 24 -19 43 -32 31 -55 33 -97 7z m-54 -131 c0 -12 -40 -34 -47
-26 -9 8 17 36 33 36 8 0 14 -4 14 -10z m-36 -47 c27 11 18 -2 -26 -34 -24
-16 -64 -50 -89 -75 -26 -24 -52 -44 -58 -44 -6 0 -11 -7 -11 -16 0 -8 -4 -12
-10 -9 -5 3 -10 1 -10 -4 0 -6 -5 -11 -11 -11 -16 0 -71 -41 -65 -48 3 -3 15
3 26 13 11 10 20 14 20 9 0 -13 -41 -38 -65 -40 -11 -2 -32 -4 -46 -7 -21 -3
-25 0 -24 17 2 16 8 20 26 18 17 -1 20 1 11 7 -10 6 -2 16 32 39 25 17 46 27
46 21 0 -6 5 -7 10 -4 6 4 8 11 5 16 -4 5 2 9 12 9 10 0 24 9 31 20 7 11 19
20 26 20 8 0 16 4 18 8 2 5 29 28 61 51 31 24 57 48 57 55 0 6 4 5 9 -3 5 -8
16 -11 25 -8z m-14 -106 c0 -2 -10 -12 -22 -23 l-23 -19 19 23 c18 21 26 27
26 19z m-380 -122 c-10 -12 -10 -15 3 -15 10 0 14 -6 11 -15 -8 -20 -24 -19
-24 1 0 11 -6 14 -20 9 -29 -9 -25 2 8 19 35 19 37 19 22 1z"/>
<path d="M2562 2368 c-7 -7 -12 -15 -12 -19 0 -8 -68 -78 -72 -74 -2 2 -4 -8
-5 -23 l-1 -26 19 24 c10 14 19 28 19 32 0 4 7 5 15 2 8 -4 15 -1 15 6 0 6 -5
8 -11 4 -7 -4 -10 -1 -7 7 3 8 13 13 24 12 10 -1 28 7 41 17 19 15 20 19 7 24
-8 3 -12 10 -9 16 9 14 -8 13 -23 -2z"/>
<path d="M795 2026 c-27 -7 -43 -14 -35 -17 21 -7 74 -4 89 5 7 5 18 1 27 -10
11 -15 13 -16 8 -3 -4 14 0 16 30 12 28 -4 36 -1 36 11 0 13 -11 16 -52 15
-29 -1 -75 -7 -103 -13z"/>
<path d="M646 2020 c-16 -5 -34 -6 -39 -3 -6 3 -7 1 -3 -5 4 -7 1 -12 -8 -12
-9 0 -16 -5 -16 -11 0 -6 11 -8 28 -5 15 3 33 2 40 -2 20 -14 -13 -36 -42 -28
-22 5 -24 4 -19 -32 3 -20 11 -44 19 -53 16 -18 19 -43 4 -34 -6 3 -7 -1 -4
-10 4 -8 1 -22 -6 -30 -10 -11 -8 -18 5 -32 17 -16 17 -16 10 7 -7 21 -6 23 6
13 12 -10 15 -8 15 7 0 10 -4 16 -8 14 -11 -7 -10 14 2 36 7 13 6 21 -5 30
-13 10 -13 14 0 26 8 8 12 20 9 28 -7 17 18 37 35 27 10 -7 10 -11 -2 -22 -7
-8 -13 -25 -12 -39 2 -14 -1 -31 -5 -39 -4 -8 -4 -22 0 -30 20 -41 31 -93 22
-104 -5 -7 -8 -31 -6 -55 4 -45 -10 -87 -27 -77 -5 4 -10 18 -10 33 -1 18 -3
21 -6 9 -3 -10 -2 -30 1 -43 5 -20 10 -23 26 -14 15 8 20 6 25 -11 9 -28 64
-89 80 -89 18 0 28 30 14 46 -11 14 -3 58 10 50 4 -3 8 1 8 9 0 17 -9 19 -23
5 -7 -7 -10 12 -10 59 1 72 10 96 26 71 7 -11 10 -6 10 18 0 32 -1 33 -22 18
-12 -9 -30 -16 -39 -16 -12 0 -16 -6 -12 -20 3 -11 8 -20 12 -20 3 0 6 -40 7
-90 1 -60 6 -95 15 -107 13 -17 13 -17 -11 -2 -26 17 -38 54 -41 131 -1 26 -6
53 -10 59 -4 7 -4 21 1 30 7 11 4 27 -6 49 -19 36 -16 162 3 181 34 34 123
-57 123 -125 0 -17 5 -38 10 -46 13 -21 13 50 0 84 -6 16 -6 26 0 26 5 0 -2
12 -15 26 -14 15 -25 31 -25 35 0 5 -18 14 -40 20 -53 16 -51 29 2 24 l43 -5
-34 21 -33 20 -21 -23 c-12 -13 -21 -21 -20 -19 2 2 -5 10 -15 17 -15 12 -14
13 11 14 16 0 26 4 22 10 -7 11 -9 11 -49 0z m41 -442 c-3 -7 -5 -2 -5 12 0
14 2 19 5 13 2 -7 2 -19 0 -25z"/>
<path d="M960 2020 c0 -10 29 -20 67 -23 12 0 21 -6 20 -11 -1 -6 8 -12 20
-14 12 -2 27 -10 33 -18 7 -8 21 -14 32 -14 10 0 16 -5 13 -10 -4 -6 -3 -9 2
-8 5 2 28 -6 51 -16 33 -15 42 -24 39 -38 -3 -10 -1 -18 3 -18 16 0 16 35 0
51 -20 20 -109 69 -126 69 -8 0 -14 4 -14 8 0 12 -92 52 -118 52 -12 0 -22 -4
-22 -10z"/>
<path d="M790 1991 c0 -5 5 -13 11 -17 45 -27 66 -202 33 -279 -9 -23 -11 -34
-3 -30 15 10 2 -93 -15 -114 -8 -12 -8 -13 2 -7 6 4 12 4 12 -1 -1 -21 -28
-84 -45 -103 -14 -16 -16 -23 -7 -32 9 -9 12 -9 12 0 0 7 11 18 25 24 16 7 21
14 14 19 -8 5 -8 16 0 40 5 19 16 88 23 154 11 92 17 119 28 117 11 -3 11 0 1
11 -6 8 -10 31 -8 51 2 20 0 36 -4 36 -5 0 -9 9 -9 20 0 12 -9 39 -21 61 -11
23 -18 43 -15 46 3 3 13 -11 22 -30 14 -29 21 -34 34 -27 17 9 30 4 30 -11 0
-4 -6 -6 -12 -5 -7 0 -13 -3 -13 -9 0 -5 6 -10 14 -10 9 0 14 -12 15 -33 1
-17 -3 -32 -7 -32 -5 0 -5 -5 -1 -11 5 -8 9 -8 14 1 5 8 11 1 18 -20 7 -17 16
-29 22 -25 14 9 52 -4 45 -16 -4 -5 5 -4 19 3 14 6 26 16 26 21 0 5 -6 4 -14
-2 -10 -8 -16 -9 -21 -1 -3 6 -11 8 -16 5 -5 -4 -9 -2 -9 4 0 6 -6 8 -14 5
-11 -4 -13 0 -9 15 3 11 10 18 15 14 6 -3 9 0 6 8 -3 8 -13 16 -23 18 -13 2
-16 -1 -12 -13 3 -8 2 -18 -2 -21 -5 -3 -14 9 -20 27 -14 40 -14 45 1 30 7 -7
16 -12 20 -12 4 0 -1 9 -13 21 -11 11 -18 24 -14 27 3 4 10 0 15 -8 6 -8 10
-11 10 -6 0 6 6 1 14 -10 8 -10 18 -16 22 -12 8 8 -35 47 -52 48 -6 0 -17 7
-24 15 -6 8 -15 14 -18 13 -4 0 -14 0 -22 1 -13 1 -13 3 -1 10 17 11 42 3 57
-17 8 -11 13 -12 18 -4 10 17 27 15 20 -1 -3 -8 2 -20 11 -27 17 -14 21 0 5
16 -8 8 -7 14 3 23 11 9 17 8 27 -4 7 -9 8 -15 2 -15 -6 0 -12 3 -15 8 -2 4
-2 1 0 -6 1 -8 3 -35 3 -61 0 -28 6 -55 16 -67 15 -19 16 -19 9 1 -19 55 -20
61 -1 46 9 -8 15 -20 12 -27 -3 -7 -1 -16 4 -19 16 -10 12 31 -4 44 -22 18
-30 63 -14 76 18 13 1 49 -24 51 -10 1 -15 -2 -12 -7 12 -19 -29 -8 -48 14
-11 12 -17 16 -13 10 3 -7 1 -13 -4 -13 -6 0 -11 6 -11 13 0 8 -3 8 -9 -2 -6
-9 -18 -12 -37 -7 -16 3 -39 9 -51 11 -13 3 -23 1 -23 -4z"/>
<path d="M2815 1980 c-3 -5 -2 -10 4 -10 5 0 13 5 16 10 3 6 2 10 -4 10 -5 0
-13 -4 -16 -10z"/>
<path d="M2200 1960 c-9 -6 -10 -10 -3 -10 6 0 15 5 18 10 8 12 4 12 -15 0z"/>
<path d="M1058 1944 c-13 -13 5 -120 23 -137 11 -10 19 -14 19 -9 0 5 -7 15
-15 22 -18 15 -19 41 -2 59 10 11 9 13 -1 7 -9 -5 -11 2 -7 28 4 33 -3 45 -17
30z"/>
<path d="M717 1928 c6 -7 13 -26 15 -43 3 -16 7 -36 9 -44 2 -7 -1 -15 -7 -18
-14 -5 -28 33 -25 70 2 29 -13 37 -23 11 -19 -49 12 -109 57 -110 25 0 27 3
27 38 0 45 -22 93 -46 102 -13 5 -14 3 -7 -6z"/>
<path d="M1087 1928 c-3 -9 -1 -20 6 -27 7 -7 7 -17 -1 -35 -10 -23 -8 -28 20
-49 25 -20 30 -29 24 -51 -6 -24 -8 -25 -22 -11 -8 8 -20 15 -26 15 -6 0 0 -8
12 -18 28 -22 17 -51 -22 -59 -23 -4 -28 -10 -25 -24 3 -11 1 -17 -3 -14 -5 3
-11 -1 -14 -7 -3 -7 -3 1 -1 17 2 17 4 33 4 38 1 4 8 7 16 7 8 0 15 6 15 13 0
9 2 9 9 -1 7 -11 9 -11 14 1 3 9 -1 18 -9 21 -17 6 -43 -15 -59 -48 -6 -12
-21 -23 -34 -24 -14 -2 -31 -10 -38 -18 -8 -8 -20 -14 -27 -14 -7 0 -13 -6
-13 -14 0 -14 33 -11 42 4 5 7 45 2 45 -6 0 -2 -5 -15 -12 -29 -10 -23 -24
-30 -55 -26 -7 1 -13 -4 -13 -11 0 -9 15 -14 45 -14 25 -1 45 3 45 7 0 11 11
11 29 0 7 -5 10 -14 6 -21 -6 -9 -10 -9 -17 1 -7 11 -11 11 -15 2 -3 -9 -10
-10 -24 -3 -14 8 -19 7 -19 -1 0 -8 -5 -7 -17 2 -16 13 -17 12 -4 -4 8 -10 21
-15 29 -12 9 3 19 0 24 -7 6 -10 8 -10 8 0 0 6 4 12 10 12 5 0 6 -8 3 -17 -7
-17 -6 -17 11 0 10 9 21 15 25 12 8 -4 51 65 48 76 -3 9 63 62 69 56 3 -2 -2
-12 -11 -21 -9 -9 -12 -16 -6 -16 5 0 14 8 20 17 7 14 12 15 24 5 12 -10 16
-10 20 2 4 10 1 13 -8 9 -8 -3 -17 1 -20 9 -8 19 -37 19 -52 -1 -7 -9 -13 -11
-13 -6 0 6 -5 3 -10 -5 -16 -23 -2 49 16 84 7 16 14 35 14 43 0 7 4 13 9 13 5
0 7 10 3 22 -3 12 -7 17 -9 11 -7 -21 -41 7 -35 29 2 10 0 18 -6 18 -6 0 -8 8
-6 18 7 24 -11 71 -19 50z m23 -88 c0 -5 -2 -10 -4 -10 -3 0 -8 5 -11 10 -3 6
-1 10 4 10 6 0 11 -4 11 -10z m-5 -171 c-8 -13 -32 -11 -41 3 -4 6 -3 8 4 4 6
-3 13 -2 17 4 4 6 11 8 16 4 5 -3 7 -10 4 -15z m-90 -19 c-3 -5 -16 -10 -28
-10 -18 0 -19 2 -7 10 20 13 43 13 35 0z m85 -15 c0 -2 -5 -16 -12 -30 -13
-29 -32 -32 -55 -9 -14 14 -14 16 3 29 18 13 64 21 64 10z m-87 -68 c-18 -11
-25 -5 -17 16 4 13 9 14 19 4 11 -10 10 -14 -2 -20z m62 -7 c3 -5 3 -15 -1
-21 -6 -11 -23 6 -24 24 0 10 18 9 25 -3z"/>
<path d="M2158 1907 c-24 -28 -42 -74 -20 -53 4 4 7 11 7 16 0 5 11 17 23 29
13 11 22 24 20 30 -1 5 -15 -5 -30 -22z"/>
<path d="M1020 1911 c0 -3 7 -14 14 -24 13 -17 14 -16 12 6 0 13 -7 24 -13 24
-7 0 -13 -3 -13 -6z"/>
<path d="M2440 1904 c-52 -8 -114 -16 -137 -19 -23 -3 -44 -12 -47 -20 -4 -11
0 -12 21 -4 14 5 42 9 62 9 20 -1 60 3 89 8 33 6 52 6 52 -1 0 -5 6 -4 14 3
18 14 206 22 206 8 0 -5 -6 -6 -12 -2 -7 4 -4 -2 6 -14 21 -24 32 -29 19 -9
-4 6 -6 22 -4 35 2 21 0 22 -86 21 -48 -1 -131 -8 -183 -15z"/>
<path d="M1124 1895 c16 -69 27 -80 54 -53 9 9 12 8 12 -4 0 -9 7 -15 16 -14
9 0 20 -9 25 -22 7 -19 6 -23 -9 -21 -9 1 -20 0 -24 -1 -5 -1 -12 -3 -18 -4
-5 0 -10 -5 -10 -11 0 -17 43 -13 64 6 11 10 22 16 25 13 3 -3 -2 -12 -12 -19
-17 -12 -15 -14 18 -25 19 -6 33 -15 31 -19 -3 -4 5 -8 17 -8 22 -2 22 -2 2
13 -11 8 -20 19 -20 23 0 5 -12 21 -27 35 -16 14 -28 28 -28 31 0 23 -60 51
-71 34 -4 -6 -12 -8 -18 -5 -14 9 -14 46 0 46 5 0 8 -4 5 -8 -3 -5 8 -8 24 -7
16 1 27 -2 24 -7 -3 -4 0 -8 5 -8 6 0 11 7 11 15 0 10 -11 16 -30 17 -52 2
-55 3 -63 13 -5 6 -6 1 -3 -10z m166 -141 c0 -2 -7 -4 -15 -4 -8 0 -15 4 -15
10 0 5 7 7 15 4 8 -4 15 -8 15 -10z"/>
<path d="M1970 1890 c-11 -7 -5 -10 23 -10 20 0 37 5 37 10 0 13 -40 13 -60 0z"/>
<path d="M885 1870 c3 -5 8 -10 11 -10 2 0 4 5 4 10 0 6 -5 10 -11 10 -5 0 -7
-4 -4 -10z"/>
<path d="M2181 1864 c0 -11 3 -14 6 -6 3 7 2 16 -1 19 -3 4 -6 -2 -5 -13z"/>
<path d="M1265 1850 c-8 -24 7 -46 35 -53 28 -7 25 2 -5 13 -24 9 -29 28 -11
41 4 4 3 9 -2 13 -6 3 -14 -3 -17 -14z"/>
<path d="M1312 1851 c-11 -7 -11 -9 1 -14 16 -6 27 0 27 15 0 10 -11 10 -28
-1z"/>
<path d="M1590 1850 c-129 -4 -236 -7 -237 -8 -2 -1 -2 -12 -2 -24 1 -17 2
-19 6 -5 2 9 9 17 14 17 6 0 8 -4 5 -9 -9 -13 37 -29 75 -26 19 2 51 5 71 6
68 5 30 12 -52 10 -74 -2 -103 8 -64 23 9 4 13 2 8 -5 -5 -8 28 -9 112 -4 95
6 265 14 307 15 4 0 7 5 7 10 0 6 -3 9 -7 8 -5 -1 -114 -5 -243 -8z m-103 -16
c-3 -3 -12 -4 -19 -1 -8 3 -5 6 6 6 11 1 17 -2 13 -5z"/>
<path d="M1880 1851 c0 -5 7 -11 15 -15 8 -3 15 -1 15 3 0 5 -7 11 -15 15 -8
3 -15 1 -15 -3z"/>
<path d="M1933 1845 c0 -8 4 -15 9 -15 4 0 8 5 8 11 0 5 3 8 8 6 4 -3 16 -1
27 4 16 6 13 8 -16 8 -25 1 -36 -3 -36 -14z"/>
<path d="M2055 1842 c-6 -4 -11 -16 -13 -27 -2 -15 -1 -17 6 -6 5 7 15 17 22
21 7 4 8 10 3 13 -5 3 -13 3 -18 -1z"/>
<path d="M2107 1843 c-4 -3 -7 -11 -7 -17 0 -6 5 -5 12 2 6 6 9 14 7 17 -3 3
-9 2 -12 -2z"/>
<path d="M2141 1818 c-9 -23 -19 -34 -28 -31 -9 4 -11 0 -7 -11 5 -12 0 -19
-15 -23 -11 -3 -19 -9 -16 -13 18 -28 91 57 83 97 -2 10 -8 3 -17 -19z"/>
<path d="M2285 1840 c-13 -6 -15 -9 -5 -9 8 0 22 4 30 9 18 12 2 12 -25 0z"/>
<path d="M1770 1810 c-9 -6 -10 -10 -3 -10 6 0 15 5 18 10 8 12 4 12 -15 0z"/>
<path d="M1842 1798 c7 -15 15 -23 17 -17 2 6 -4 18 -13 27 -15 15 -15 15 -4
-10z"/>
<path d="M1175 1800 c4 -6 11 -8 16 -5 14 9 11 15 -7 15 -8 0 -12 -5 -9 -10z"/>
<path d="M1680 1806 c0 -8 26 -36 33 -36 2 0 4 7 4 15 0 8 -3 13 -5 10 -3 -3
-11 0 -19 6 -7 6 -13 8 -13 5z"/>
<path d="M2066 1798 c3 -5 10 -6 15 -3 13 9 11 12 -6 12 -8 0 -12 -4 -9 -9z"/>
<path d="M2283 1795 c0 -8 4 -15 9 -15 4 0 8 4 8 9 0 6 -4 12 -8 15 -5 3 -9
-1 -9 -9z"/>
<path d="M2315 1800 c-3 -5 -2 -10 4 -10 5 0 13 5 16 10 3 6 2 10 -4 10 -5 0
-13 -4 -16 -10z"/>
<path d="M2380 1800 c-9 -6 -10 -10 -3 -10 6 0 15 5 18 10 8 12 4 12 -15 0z"/>
<path d="M2406 1795 c-3 -8 -1 -15 4 -15 13 0 22 18 11 24 -5 3 -11 -1 -15 -9z"/>
<path d="M2484 1798 c-4 -6 -3 -8 4 -4 5 3 13 0 15 -6 3 -8 6 -6 6 5 1 19 -14
23 -25 5z"/>
<path d="M1625 1790 c-3 -5 -1 -10 4 -10 6 0 11 5 11 10 0 6 -2 10 -4 10 -3 0
-8 -4 -11 -10z"/>
<path d="M1655 1777 c0 -20 5 -23 35 -24 27 0 29 0 8 4 -20 3 -28 10 -28 24 0
10 -3 19 -7 19 -5 0 -8 -10 -8 -23z"/>
<path d="M1890 1790 c0 -5 5 -10 11 -10 5 0 7 5 4 10 -3 6 -8 10 -11 10 -2 0
-4 -4 -4 -10z"/>
<path d="M907 1771 c-2 -11 0 -24 6 -30 19 -19 27 -12 17 13 -5 13 -6 27 -3
30 4 3 2 6 -4 6 -6 0 -13 -9 -16 -19z"/>
<path d="M1060 1779 c0 -5 5 -7 10 -4 6 3 10 8 10 11 0 2 -4 4 -10 4 -5 0 -10
-5 -10 -11z"/>
<path d="M1110 1780 c0 -5 5 -10 11 -10 5 0 7 5 4 10 -3 6 -8 10 -11 10 -2 0
-4 -4 -4 -10z"/>
<path d="M1343 1775 c-3 -9 -3 -19 1 -22 3 -4 6 -1 6 5 0 7 8 12 18 12 14 0
15 -2 2 -10 -11 -7 0 -9 34 -8 l49 1 -38 18 c-47 23 -64 24 -72 4z"/>
<path d="M1558 1783 c7 -3 16 -2 19 1 4 3 -2 6 -13 5 -11 0 -14 -3 -6 -6z"/>
<path d="M1730 1780 c0 -5 5 -10 11 -10 5 0 7 5 4 10 -3 6 -8 10 -11 10 -2 0
-4 -4 -4 -10z"/>
<path d="M2885 1780 c3 -5 8 -10 11 -10 2 0 4 5 4 10 0 6 -5 10 -11 10 -5 0
-7 -4 -4 -10z"/>
<path d="M727 1761 c-3 -13 -1 -18 9 -14 7 2 10 11 7 19 -7 19 -10 18 -16 -5z"/>
<path d="M1760 1773 c0 -6 -8 -13 -17 -15 -10 -2 -13 -6 -8 -9 6 -4 18 -4 27
0 13 4 15 10 8 21 -6 9 -10 10 -10 3z"/>
<path d="M1806 1765 c-16 -12 -17 -15 -4 -15 9 0 18 7 22 15 7 18 6 18 -18 0z"/>
<path d="M1973 1765 c-10 -11 -9 -13 6 -12 11 1 17 7 14 14 -6 16 -5 16 -20
-2z"/>
<path d="M2050 1769 c0 -5 5 -7 10 -4 6 3 10 8 10 11 0 2 -4 4 -10 4 -5 0 -10
-5 -10 -11z"/>
<path d="M2426 1765 c-11 -8 -16 -15 -10 -15 5 0 18 7 28 15 11 8 16 15 10 15
-5 0 -18 -7 -28 -15z"/>
<path d="M514 1741 c-3 -14 -7 -32 -10 -38 -2 -7 1 -13 6 -13 6 0 11 8 11 18
1 9 2 24 3 32 0 9 9 14 23 12 12 -2 23 1 26 5 3 4 -8 8 -24 9 -24 1 -30 -4
-35 -25z"/>
<path d="M1465 1760 c-3 -6 0 -7 10 -4 10 4 15 2 13 -6 -2 -7 3 -15 11 -18 8
-2 11 0 7 6 -3 6 -2 13 4 17 5 3 10 1 10 -5 0 -6 4 -9 9 -6 5 3 17 -6 26 -20
9 -15 20 -22 24 -17 3 5 15 15 26 22 20 12 8 10 -30 -5 -11 -5 -14 -2 -8 12 4
12 3 15 -5 10 -7 -4 -12 -1 -12 6 0 17 -75 24 -85 8z"/>
<path d="M1585 1759 c-4 -6 -5 -12 -2 -15 2 -3 7 2 10 11 7 17 1 20 -8 4z"/>
<path d="M2334 1755 c-10 -8 -14 -14 -9 -15 15 0 40 18 34 24 -3 3 -14 -1 -25
-9z"/>
<path d="M2025 1750 c-3 -5 -1 -10 4 -10 6 0 11 5 11 10 0 6 -2 10 -4 10 -3 0
-8 -4 -11 -10z"/>
<path d="M1180 1736 c-6 -8 -19 -12 -28 -10 -15 5 -16 4 -1 -8 9 -7 14 -19 12
-25 -3 -7 0 -13 7 -13 6 0 9 4 6 8 -3 5 1 20 9 35 15 30 14 35 -5 13z"/>
<path d="M2214 1735 c-12 -13 -14 -46 -3 -39 5 3 9 12 9 20 0 8 5 14 10 14 6
0 10 -4 10 -10 0 -5 4 -10 10 -10 5 0 7 7 4 15 -4 8 -2 15 4 15 6 0 13 -6 15
-12 3 -8 6 -6 6 4 1 13 -6 17 -28 15 -15 -1 -32 -6 -37 -12z"/>
<path d="M2760 1740 c0 -17 -62 -80 -73 -73 -6 3 -7 1 -3 -5 6 -11 -6 -16 -26
-13 -5 0 -8 -3 -8 -9 0 -5 -7 -10 -15 -10 -8 0 -15 -4 -15 -9 0 -12 -41 -26
-105 -36 -33 -5 -32 -8 10 -14 28 -5 45 -3 58 8 9 8 17 11 17 8 0 -13 105 58
142 96 37 38 49 67 28 67 -5 0 -10 -4 -10 -10z"/>
<path d="M590 1719 c0 -11 -4 -18 -8 -15 -4 2 -8 -7 -9 -22 -1 -15 1 -21 4
-14 2 6 8 10 11 8 4 -2 8 11 9 30 2 19 1 34 -2 34 -3 0 -5 -9 -5 -21z"/>
<path d="M610 1730 c0 -5 5 -10 11 -10 5 0 7 5 4 10 -3 6 -8 10 -11 10 -2 0
-4 -4 -4 -10z"/>
<path d="M895 1705 c0 -22 4 -31 13 -28 6 3 12 -2 12 -11 0 -10 5 -13 17 -9
14 6 13 9 -7 25 -12 10 -21 19 -19 19 2 1 16 3 32 5 20 2 27 -2 27 -14 0 -13
2 -13 15 4 13 18 14 18 15 1 0 -10 4 -16 10 -12 6 3 5 15 -2 30 -10 23 -12 23
-24 7 -9 -11 -13 -13 -14 -4 0 9 -7 11 -20 7 -10 -3 -27 -2 -37 3 -16 9 -18 6
-18 -23z"/>
<path d="M1205 1723 c-3 -8 -5 -27 -4 -41 0 -24 1 -25 8 -7 5 11 6 24 4 28 -3
5 3 14 12 21 15 11 16 13 2 13 -9 0 -19 -7 -22 -14z"/>
<path d="M1343 1725 c0 -7 8 -10 20 -7 11 3 18 1 15 -4 -4 -5 7 -9 23 -10 37
-1 29 7 -20 22 -29 8 -38 8 -38 -1z"/>
<path d="M1430 1725 c43 -17 63 -18 55 -5 -4 6 -11 8 -16 5 -5 -4 -9 -3 -9 2
0 4 -15 9 -33 10 l-32 1 35 -13z"/>
<path d="M1636 1733 c-3 -4 -6 -16 -5 -27 1 -19 2 -19 8 3 l6 23 34 -31 c31
-29 34 -30 46 -14 7 10 11 21 9 25 -3 5 3 8 12 8 10 0 14 -3 11 -7 -4 -3 -1
-13 6 -21 10 -13 9 -15 -5 -9 -22 8 -23 1 -4 -18 12 -12 15 -12 18 3 3 10 1
28 -4 41 -7 19 -13 22 -37 18 -16 -3 -31 -3 -35 0 -8 9 -53 13 -60 6z m88 -35
c-5 -8 -44 13 -44 23 0 4 11 2 24 -4 13 -7 22 -15 20 -19z"/>
<path d="M1795 1731 c-3 -5 -2 -12 3 -15 5 -3 9 1 9 9 0 17 -3 19 -12 6z"/>
<path d="M876 1717 c3 -10 9 -15 12 -12 3 3 0 11 -7 18 -10 9 -11 8 -5 -6z"/>
<path d="M1265 1720 c3 -5 8 -10 11 -10 2 0 4 5 4 10 0 6 -5 10 -11 10 -5 0
-7 -4 -4 -10z"/>
<path d="M2078 1716 c-9 -9 -23 -15 -29 -14 -7 2 -13 -4 -14 -12 0 -16 -15
-36 -90 -117 -54 -59 -68 -79 -72 -105 -3 -20 5 -22 25 -9 11 7 10 9 -3 15 -9
3 -13 10 -10 16 9 15 27 12 20 -2 -4 -7 4 -1 17 13 13 15 32 29 43 32 18 4 17
5 -3 6 -31 1 -19 18 19 26 24 5 28 9 18 16 -12 8 -12 11 1 19 8 5 22 10 30 10
11 1 10 4 -4 15 -11 8 -17 16 -13 16 4 1 12 3 17 4 6 1 15 3 21 4 6 0 8 10 4
22 -4 12 -3 19 2 16 12 -8 46 20 41 34 -3 8 -9 7 -20 -5z"/>
<path d="M2334 1715 c-3 -8 -4 -20 -2 -27 3 -7 7 -1 10 15 6 29 1 36 -8 12z"/>
<path d="M2438 1714 c-39 -21 -35 -28 5 -8 37 19 44 24 31 24 -5 -1 -21 -8
-36 -16z"/>
<path d="M2655 1720 c-3 -5 -1 -10 4 -10 6 0 11 5 11 10 0 6 -2 10 -4 10 -3 0
-8 -4 -11 -10z"/>
<path d="M610 1680 c0 -16 4 -30 8 -30 4 0 8 14 7 30 0 17 -3 30 -7 30 -5 0
-8 -13 -8 -30z"/>
<path d="M1432 1693 c-11 -11 -17 -12 -30 -1 -14 10 -15 10 -4 -2 7 -8 31 -15
55 -16 59 -2 131 -12 205 -29 35 -8 78 -15 95 -14 31 0 31 1 8 10 -14 5 -31 7
-38 5 -7 -3 -13 -2 -13 3 0 4 -12 8 -27 8 -43 1 -216 33 -228 43 -6 4 -16 2
-23 -7z"/>
<path d="M1791 1693 c7 -12 15 -20 18 -17 3 2 -3 12 -13 22 -17 16 -18 16 -5
-5z"/>
<path d="M1250 1691 c-22 -6 -23 -8 -7 -14 11 -4 24 -1 33 8 17 16 13 17 -26
6z"/>
<path d="M1310 1691 c0 -17 103 -61 143 -61 10 0 15 -4 12 -10 -3 -5 0 -7 8
-5 7 3 29 -1 48 -8 21 -9 42 -11 54 -6 18 7 18 8 -5 7 -24 0 -197 59 -240 82
-13 7 -20 7 -20 1z"/>
<path d="M1657 1689 c7 -7 15 -10 18 -7 3 3 -2 9 -12 12 -14 6 -15 5 -6 -5z"/>
<path d="M1956 1692 c-3 -5 1 -9 9 -9 8 0 15 4 15 9 0 4 -4 8 -9 8 -6 0 -12
-4 -15 -8z"/>
<path d="M771 1668 c-10 -16 -10 -23 0 -32 9 -8 11 -7 6 6 -4 11 0 21 10 26 8
5 11 12 6 15 -5 3 -15 -4 -22 -15z"/>
<path d="M1130 1680 c0 -5 5 -10 10 -10 6 0 10 5 10 10 0 6 -4 10 -10 10 -5 0
-10 -4 -10 -10z"/>
<path d="M501 1668 c1 -7 1 -26 0 -42 -1 -26 -3 -27 -18 -15 -15 11 -14 10 1
-9 11 -12 26 -22 35 -22 12 0 13 2 4 8 -12 8 -11 61 2 82 3 5 -1 10 -10 10 -9
0 -15 -6 -14 -12z"/>
<path d="M2920 1670 c0 -5 7 -10 15 -10 8 0 15 5 15 10 0 6 -7 10 -15 10 -8 0
-15 -4 -15 -10z"/>
<path d="M876 1639 c1 -14 -1 -30 -5 -35 -18 -19 -21 -63 -6 -77 8 -8 11 -18
7 -22 -4 -5 -1 -5 6 -1 7 4 10 12 7 17 -4 5 1 9 10 9 13 0 14 -4 5 -20 -9 -17
-7 -24 12 -40 13 -11 18 -19 12 -20 -5 0 -15 4 -22 10 -7 6 -7 4 1 -5 10 -11
20 -13 45 -6 17 5 34 6 37 1 3 -5 19 -7 35 -5 17 2 30 1 30 -3 0 -4 8 -9 18
-10 9 -1 26 -4 37 -6 11 -2 31 3 43 11 31 19 40 9 16 -18 -32 -36 -50 -41 -90
-24 -50 21 -84 20 -84 -3 0 -10 -5 -23 -12 -30 -9 -9 -9 -15 0 -24 9 -9 12 -9
12 2 0 7 3 11 6 7 3 -3 17 6 30 21 15 17 23 22 24 13 0 -8 -24 -37 -52 -65
-29 -28 -53 -55 -53 -61 -1 -17 136 -76 200 -87 33 -6 66 -15 72 -20 7 -6 29
-7 49 -3 56 10 293 7 376 -5 118 -18 147 -28 153 -53 8 -31 -22 -216 -37 -235
-10 -12 -10 -14 -1 -8 16 9 6 -51 -11 -73 -8 -11 -8 -13 2 -7 17 10 15 -5 -5
-33 -9 -14 -11 -21 -5 -17 18 11 15 -5 -5 -26 -16 -18 -16 -18 2 -12 13 5 16
4 11 -5 -4 -7 -9 -23 -11 -37 -2 -19 0 -22 11 -13 8 6 15 8 15 3 1 -5 2 -16 3
-24 0 -8 9 -14 18 -14 10 1 15 -2 13 -7 -6 -8 26 -29 44 -29 15 0 14 30 -1 30
-7 0 -24 9 -38 20 -16 13 -20 20 -10 19 25 0 72 -44 68 -65 -2 -13 4 -20 20
-22 12 -2 22 1 22 7 0 6 -8 8 -17 5 -14 -5 -15 -4 -4 4 7 5 10 15 7 21 -14 23
4 10 20 -14 15 -23 15 -27 0 -50 -9 -14 -12 -25 -6 -25 6 0 13 7 17 17 5 14 8
13 14 -5 9 -24 43 -30 56 -9 14 23 13 48 -3 54 -9 3 -27 17 -40 29 -12 13 -29
24 -36 24 -7 0 -32 10 -55 22 -42 22 -43 24 -43 74 0 28 9 118 20 200 18 134
26 233 20 259 -1 6 -2 13 -1 18 3 19 -10 3 -29 -35 -19 -40 -20 -41 -15 -10 4
20 3 32 -4 32 -6 0 -11 -4 -11 -10 0 -5 -7 -10 -16 -10 -9 0 -12 5 -8 12 5 8
2 9 -9 5 -10 -3 -17 -2 -17 3 0 6 8 10 18 11 28 1 -28 20 -70 24 -21 2 -38 0
-38 -5 0 -4 11 -7 25 -5 14 1 28 -2 32 -8 7 -12 -87 -1 -96 11 -6 7 -21 9
-136 11 -126 3 -137 2 -150 -9 -10 -8 -15 -8 -20 0 -8 12 -46 3 -57 -14 -6 -8
-8 -8 -8 1 0 6 -22 14 -50 18 -27 4 -50 12 -50 17 0 6 -6 5 -15 -2 -8 -7 -15
-9 -16 -4 0 5 -2 23 -4 40 -4 27 0 33 31 47 19 9 38 17 42 17 12 -1 -42 -40
-55 -40 -7 0 -13 -4 -13 -10 0 -15 12 -12 40 10 14 11 33 20 43 20 9 0 26 9
36 19 13 13 22 16 29 9 8 -8 9 -4 5 11 -3 11 -11 21 -19 21 -7 0 -18 8 -23 18
-13 22 -14 11 -1 -23 12 -31 -7 -43 -39 -25 -13 7 -21 7 -21 1 0 -6 -6 -8 -14
-5 -8 3 -17 0 -21 -5 -3 -6 -11 -8 -17 -5 -7 4 -8 2 -4 -4 4 -7 2 -12 -4 -12
-6 0 -11 -10 -10 -22 5 -58 3 -59 -47 -30 -56 33 -66 62 -29 82 14 7 23 16 21
20 -12 20 70 17 103 -4 6 -3 13 -2 17 3 3 6 11 8 19 5 14 -5 42 46 29 55 -10
8 -10 32 0 49 5 8 3 12 -7 12 -9 0 -16 8 -16 18 -1 15 -2 15 -15 -2 -8 -11
-15 -16 -15 -10 0 5 -5 2 -10 -6 -8 -12 -10 -12 -10 5 -1 20 -1 20 -15 1 -8
-11 -15 -14 -15 -8 0 8 -9 10 -27 7 -24 -5 -25 -4 -10 5 15 10 16 13 2 26 -14
14 -17 13 -36 -8 -11 -12 -18 -18 -15 -12 7 14 -38 39 -53 30 -6 -4 -11 -14
-11 -22 0 -17 -12 -18 -28 -2 -15 15 -16 52 -2 43 6 -4 8 -10 5 -15 -3 -5 -1
-11 4 -14 23 -14 20 16 -4 39 -20 21 -23 30 -15 45 7 13 7 21 0 25 -5 3 -10
21 -10 38 0 22 -3 28 -9 18 -8 -12 -10 -12 -14 0 -2 8 -3 2 -1 -12z m17 -71
c-13 -15 -14 -18 -2 -18 12 0 11 -2 -1 -10 -20 -13 -34 12 -14 26 11 9 12 13
3 16 -7 2 -9 9 -5 16 5 9 10 9 21 -1 11 -10 11 -15 -2 -29z m97 -84 c0 -8 -19
-13 -24 -6 -3 5 1 9 9 9 8 0 15 -2 15 -3z m65 -14 c-3 -5 -11 -10 -16 -10 -6
0 -7 5 -4 10 3 6 11 10 16 10 6 0 7 -4 4 -10z m125 -75 c-8 -9 -8 -15 0 -20
18 -11 11 -28 -10 -22 -11 3 -18 1 -15 -3 3 -5 1 -11 -4 -14 -20 -12 -20 13
-1 37 11 14 20 30 20 37 0 6 5 8 10 5 8 -5 8 -11 0 -20z m-160 -15 c0 -5 -10
-15 -22 -21 l-23 -12 20 21 c23 24 25 25 25 12z m100 -22 c0 -11 -47 -10 -55
1 -3 5 8 9 25 9 16 -1 30 -5 30 -10z m-140 -111 c0 -4 -6 -2 -14 5 -8 7 -12
17 -9 22 5 8 23 -12 23 -27z m857 -174 c-9 -95 -49 -418 -54 -433 -10 -34 -19
13 -12 68 18 148 50 379 55 395 10 33 16 17 11 -30z m147 -552 c3 -5 -1 -12
-10 -15 -20 -8 -29 -1 -19 13 8 13 22 14 29 2z"/>
<path d="M1450 1666 c0 -2 7 -7 16 -10 8 -3 12 -2 9 4 -6 10 -25 14 -25 6z"/>
<path d="M2555 1644 l-30 -26 32 16 c17 9 35 20 38 26 11 18 -9 10 -40 -16z"/>
<path d="M580 1650 c-12 -7 -12 -12 -2 -22 14 -14 16 -52 2 -43 -5 3 -10 1
-10 -4 0 -6 9 -11 20 -11 18 0 20 4 14 43 -8 51 -6 48 -24 37z"/>
<path d="M1500 1650 c0 -4 9 -10 20 -13 11 -3 20 -2 20 3 0 4 -9 10 -20 13
-11 3 -20 2 -20 -3z"/>
<path d="M1920 1650 c0 -5 5 -10 11 -10 5 0 7 5 4 10 -3 6 -8 10 -11 10 -2 0
-4 -4 -4 -10z"/>
<path d="M1550 1640 c0 -10 71 -33 78 -25 3 3 -4 7 -14 10 -10 4 -27 11 -36
16 -22 11 -28 11 -28 -1z"/>
<path d="M2150 1645 c0 -14 29 -35 35 -26 3 6 -4 15 -15 21 -11 6 -20 8 -20 5z"/>
<path d="M1269 1618 c-5 -13 -17 -36 -26 -53 -10 -18 -17 -58 -19 -97 -1 -57
1 -68 15 -68 9 0 12 3 6 8 -6 4 -9 18 -7 32 1 14 3 44 3 68 0 23 5 42 10 42 6
0 8 4 4 10 -7 11 34 55 43 46 3 -3 2 -6 -3 -6 -4 0 -2 -7 6 -16 10 -12 10 -17
0 -23 -10 -6 -8 -10 5 -15 9 -3 19 -4 22 -1 3 3 1 5 -5 5 -6 0 -9 9 -6 19 3
11 -3 27 -15 39 -11 11 -18 23 -14 26 3 3 2 6 -2 6 -3 0 -11 -10 -17 -22z"/>
<path d="M1320 1620 c0 -5 7 -10 15 -10 8 0 15 5 15 10 0 6 -7 10 -15 10 -8 0
-15 -4 -15 -10z"/>
<path d="M1859 1618 c12 -16 8 -24 -34 -73 -25 -30 -51 -55 -56 -55 -6 0 -7
-5 -3 -12 5 -7 22 6 51 38 24 27 51 57 60 66 9 10 15 19 12 21 -2 1 -13 9 -24
17 -18 14 -19 14 -6 -2z"/>
<path d="M1226 1611 c-4 -7 -5 -15 -2 -18 9 -9 19 4 14 18 -4 11 -6 11 -12 0z"/>
<path d="M1347 1605 c-17 -12 -16 -13 7 -11 25 1 34 10 18 20 -4 2 -15 -2 -25
-9z"/>
<path d="M1640 1610 c0 -5 10 -10 23 -10 18 0 19 2 7 10 -19 13 -30 13 -30 0z"/>
<path d="M2140 1609 c0 -5 5 -7 10 -4 6 3 10 8 10 11 0 2 -4 4 -10 4 -5 0 -10
-5 -10 -11z"/>
<path d="M550 1599 c0 -5 5 -7 10 -4 6 3 10 8 10 11 0 2 -4 4 -10 4 -5 0 -10
-5 -10 -11z"/>
<path d="M1186 1599 c5 -9 -1 -10 -20 -5 -21 5 -27 3 -24 -6 3 -7 12 -13 22
-13 9 0 21 -7 27 -15 8 -12 9 -10 4 8 -4 13 -2 22 4 22 6 0 11 5 11 10 0 6 -7
10 -16 10 -9 0 -12 -5 -8 -11z"/>
<path d="M1690 1601 c0 -8 41 -23 47 -17 2 1 -8 8 -22 14 -14 6 -25 8 -25 3z"/>
<path d="M1835 1600 c-3 -5 -1 -10 4 -10 6 0 11 5 11 10 0 6 -2 10 -4 10 -3 0
-8 -4 -11 -10z"/>
<path d="M1506 1579 c21 -23 21 -23 21 -5 0 8 -9 17 -20 20 -18 4 -18 4 -1
-15z"/>
<path d="M1430 1580 c-12 -7 -10 -9 7 -7 12 0 19 5 17 9 -6 10 -6 10 -24 -2z"/>
<path d="M1565 1580 c-17 -8 -17 -9 7 -7 15 1 24 5 22 9 -3 4 -6 8 -7 7 -1 0
-11 -4 -22 -9z"/>
<path d="M2948 1583 c6 -2 18 -2 25 0 6 3 1 5 -13 5 -14 0 -19 -2 -12 -5z"/>
<path d="M1330 1569 c0 -5 5 -7 10 -4 6 3 10 8 10 11 0 2 -4 4 -10 4 -5 0 -10
-5 -10 -11z"/>
<path d="M1615 1570 c-5 -8 -4 -11 3 -6 5 3 12 1 14 -6 2 -6 14 -13 26 -14 16
-3 20 0 15 12 -4 10 -9 12 -16 5 -7 -7 -14 -5 -22 6 -10 13 -14 13 -20 3z"/>
<path d="M1680 1576 c0 -2 9 -6 20 -9 11 -3 18 -1 14 4 -5 9 -34 13 -34 5z"/>
<path d="M2088 1568 c5 -5 47 -10 93 -12 46 -2 91 -5 99 -8 8 -3 12 -3 7 -1
-4 3 -5 8 -2 13 3 4 -2 10 -10 14 -8 3 -17 1 -20 -5 -4 -5 -11 -6 -18 -2 -16
10 -159 11 -149 1z"/>
<path d="M2325 1560 c-17 -19 -4 -23 23 -7 6 5 12 4 12 0 0 -5 9 -9 20 -9 29
0 25 10 -9 23 -25 9 -32 8 -46 -7z"/>
<path d="M2416 1563 c-6 -14 -5 -15 5 -6 7 7 10 15 7 18 -3 3 -9 -2 -12 -12z"/>
<path d="M1116 1562 c-10 -17 2 -32 19 -25 9 3 15 -1 15 -10 0 -10 -7 -14 -22
-11 -13 2 -17 2 -10 -2 6 -3 10 -10 6 -15 -3 -5 2 -9 10 -9 8 0 18 9 21 20 3
11 11 20 16 20 14 0 11 -27 -3 -34 -7 -3 -4 -5 7 -3 30 4 26 41 -5 46 -23 3
-24 4 -5 12 16 8 15 8 -7 4 -16 -3 -28 0 -30 7 -3 9 -6 9 -12 0z"/>
<path d="M1380 1560 c0 -5 5 -10 10 -10 6 0 10 5 10 10 0 6 -4 10 -10 10 -5 0
-10 -4 -10 -10z"/>
<path d="M2460 1560 c0 -6 7 -10 15 -10 8 0 15 2 15 4 0 2 -7 6 -15 10 -8 3
-15 1 -15 -4z"/>
<path d="M503 1553 c-14 -5 -18 -33 -5 -33 4 0 13 9 20 20 12 20 8 23 -15 13z"/>
<path d="M560 1548 c0 -11 32 -10 50 2 11 8 7 10 -17 8 -18 -1 -33 -6 -33 -10z"/>
<path d="M651 1501 c3 -25 12 -61 19 -79 17 -46 7 -50 -19 -7 -12 21 -21 53
-21 76 0 38 -1 39 -27 33 -33 -8 -42 -14 -22 -14 22 0 40 -21 29 -35 -10 -12
56 -108 75 -109 6 -1 11 18 13 42 2 28 -1 42 -9 42 -8 0 -6 5 4 13 16 11 16
14 -5 44 -35 50 -45 48 -37 -6z"/>
<path d="M1266 1543 c-12 -12 -6 -22 11 -16 11 4 14 3 9 -5 -4 -7 -3 -12 3
-12 5 0 12 4 15 8 6 10 -30 33 -38 25z"/>
<path d="M1397 1544 c-3 -4 1 -17 10 -30 18 -28 12 -30 -20 -9 -23 15 -67 17
-67 3 0 -4 5 -8 10 -8 6 0 10 -5 10 -11 0 -5 -4 -7 -10 -4 -6 3 -7 -1 -4 -9 9
-23 19 -20 21 5 1 12 4 23 7 26 8 8 56 -29 50 -38 -8 -14 -26 -11 -18 4 4 6
-2 3 -14 -7 -26 -23 -28 -30 -6 -22 9 4 23 1 30 -5 8 -6 14 -8 14 -4 0 4 7 2
15 -5 12 -10 15 -10 15 0 0 6 -9 14 -20 17 -11 3 -17 9 -14 14 3 5 10 6 16 3
7 -5 9 2 4 22 -4 16 -7 37 -7 47 0 17 -10 22 -22 11z"/>
<path d="M2057 1536 c-3 -8 0 -17 7 -19 10 -4 12 1 9 14 -6 23 -9 24 -16 5z"/>
<path d="M2098 1533 c-6 -22 16 -41 27 -23 4 6 2 10 -4 10 -5 0 -11 8 -13 18
-3 14 -5 13 -10 -5z"/>
<path d="M516 1522 c-15 -18 -15 -20 2 -35 17 -16 18 -15 18 18 0 19 -1 35 -1
35 -1 0 -9 -8 -19 -18z"/>
<path d="M1441 1524 c9 -10 20 -30 24 -44 4 -14 16 -39 26 -56 23 -38 24 -48
3 -40 -8 3 -12 2 -9 -4 8 -13 56 -4 67 12 9 15 11 38 2 38 -3 0 -14 -4 -24
-10 -21 -11 -46 11 -37 34 3 8 2 16 -2 18 -4 2 -14 16 -22 32 -8 16 -21 32
-29 34 -13 4 -12 2 1 -14z m104 -114 c-3 -5 -12 -10 -18 -10 -7 0 -6 4 3 10
19 12 23 12 15 0z"/>
<path d="M2505 1514 c-11 -17 -13 -25 -4 -22 16 5 44 48 31 48 -5 0 -17 -12
-27 -26z"/>
<path d="M1087 1523 c-4 -3 -7 -11 -7 -17 0 -6 5 -5 12 2 6 6 9 14 7 17 -3 3
-9 2 -12 -2z"/>
<path d="M2140 1516 c0 -8 4 -17 9 -20 5 -4 7 3 4 14 -6 23 -13 26 -13 6z"/>
<path d="M2228 1523 c6 -2 18 -2 25 0 6 3 1 5 -13 5 -14 0 -19 -2 -12 -5z"/>
<path d="M2290 1519 c0 -6 6 -9 14 -6 7 3 19 0 25 -6 9 -9 11 -8 6 6 -8 19
-45 24 -45 6z"/>
<path d="M2423 1505 c-35 -10 -63 -25 -63 -32 0 -17 6 -16 35 3 13 9 29 13 35
9 5 -3 17 0 25 8 8 9 20 17 27 20 7 2 11 6 8 8 -3 2 -33 -5 -67 -16z"/>
<path d="M2186 1506 c3 -8 14 -16 25 -19 25 -7 24 -3 -6 17 -19 13 -23 13 -19
2z"/>
<path d="M1261 1494 c0 -11 3 -14 6 -6 3 7 2 16 -1 19 -3 4 -6 -2 -5 -13z"/>
<path d="M1485 1500 c3 -5 10 -10 16 -10 5 0 9 5 9 10 0 6 -7 10 -16 10 -8 0
-12 -4 -9 -10z"/>
<path d="M1537 1495 c-18 -13 -24 -31 -7 -20 6 3 14 -2 18 -12 6 -17 11 -18
52 -8 l45 12 -33 7 c-18 4 -38 13 -45 21 -11 10 -17 10 -30 0z m28 -15 c3 -5
2 -10 -4 -10 -5 0 -13 5 -16 10 -3 6 -2 10 4 10 5 0 13 -4 16 -10z"/>
<path d="M2030 1500 c-9 -6 -10 -10 -3 -10 6 0 15 5 18 10 8 12 4 12 -15 0z"/>
<path d="M580 1490 c0 -5 5 -10 11 -10 5 0 7 5 4 10 -3 6 -8 10 -11 10 -2 0
-4 -4 -4 -10z"/>
<path d="M1096 1492 c-2 -4 -1 -14 5 -22 7 -12 9 -10 9 8 0 23 -5 28 -14 14z"/>
<path d="M1205 1489 c-4 -6 -5 -12 -2 -15 2 -3 7 2 10 11 7 17 1 20 -8 4z"/>
<path d="M1280 1490 c0 -6 8 -20 18 -31 15 -15 19 -16 19 -4 0 8 -4 15 -9 15
-4 0 -8 7 -8 15 0 8 -4 15 -10 15 -5 0 -10 -5 -10 -10z"/>
<path d="M2084 1485 c11 -8 26 -15 33 -15 22 0 14 8 -19 19 -30 10 -31 9 -14
-4z"/>
<path d="M500 1473 c0 -6 7 -13 15 -17 8 -3 15 -12 15 -20 0 -8 16 -27 35 -42
19 -14 32 -30 29 -35 -2 -5 6 -11 20 -15 36 -9 47 -25 31 -47 -18 -26 -43 -11
-67 39 -11 25 -24 47 -29 50 -16 9 -10 -18 12 -52 14 -24 16 -32 7 -29 -18 7
-68 -11 -68 -24 0 -15 43 -26 48 -12 6 17 42 13 42 -4 0 -8 2 -15 5 -15 16 0
66 32 79 51 8 12 19 18 26 14 9 -5 10 -1 5 14 -8 27 6 27 23 0 12 -18 11 -21
-8 -26 -11 -3 -23 -16 -26 -29 -5 -18 -12 -22 -32 -20 -15 2 -19 1 -9 -1 20
-5 22 -19 5 -29 -7 -4 -8 -3 -4 4 5 8 -5 11 -29 10 -20 -1 -38 -5 -41 -10 -10
-16 3 -20 24 -9 15 8 21 7 25 -3 3 -7 19 -18 36 -24 25 -9 29 -8 24 4 -3 8 1
14 10 14 19 0 57 76 57 114 0 21 -4 27 -15 23 -19 -8 -30 10 -15 28 6 8 9 23
5 35 -5 14 -2 20 9 20 22 0 20 13 -3 27 -17 11 -19 8 -19 -28 -1 -23 -9 -51
-22 -70 -21 -29 -44 -34 -46 -11 -1 7 -2 16 -3 20 0 4 -10 8 -21 9 -11 1 -31
14 -45 29 -19 21 -22 30 -14 40 9 11 6 14 -18 14 -16 0 -34 5 -41 12 -8 8 -12
8 -12 1z"/>
<path d="M850 1470 c-12 -8 -11 -10 8 -10 12 0 22 5 22 10 0 13 -11 13 -30 0z"/>
<path d="M2288 1473 c-10 -2 -18 -11 -18 -18 0 -7 -3 -20 -6 -28 -4 -12 0 -13
30 -3 34 10 35 11 13 23 l-22 12 22 1 c12 0 25 5 28 10 6 10 -15 12 -47 3z"/>
<path d="M2460 1469 c0 -5 5 -7 10 -4 6 3 10 8 10 11 0 2 -4 4 -10 4 -5 0 -10
-5 -10 -11z"/>
<path d="M1250 1454 c0 -8 5 -12 10 -9 6 4 8 11 5 16 -9 14 -15 11 -15 -7z"/>
<path d="M1742 1463 c-6 -3 -10 -9 -7 -14 3 -4 -3 -14 -15 -21 -11 -7 -20 -16
-20 -21 0 -4 -15 -23 -32 -41 -35 -35 -45 -56 -28 -56 5 0 10 5 10 10 0 6 8
10 17 10 9 0 14 3 10 6 -3 3 -1 11 4 18 34 40 81 107 78 110 -2 2 -10 1 -17
-1z"/>
<path d="M1816 1421 c-20 -26 -42 -54 -50 -60 -12 -10 -14 -8 -10 11 3 18 1
16 -10 -7 -12 -24 -15 -26 -16 -10 -1 11 -4 15 -7 7 -3 -7 -2 -19 1 -27 4 -12
10 -12 36 3 16 9 33 25 36 35 3 9 10 14 16 11 6 -4 8 -2 5 3 -8 12 16 35 31
31 5 -2 9 2 9 7 -1 6 -6 9 -10 7 -4 -1 -3 7 3 18 19 35 3 22 -34 -29z"/>
<path d="M359 1427 c-143 -55 -171 -81 -271 -259 -67 -119 -86 -161 -86 -192
l0 -39 23 26 c12 15 24 25 27 22 2 -2 9 10 16 28 6 18 40 87 75 152 l64 120
49 3 c28 1 60 10 74 20 14 11 57 31 95 46 121 47 114 42 83 56 -15 7 -30 21
-33 32 -8 24 -15 23 -116 -15z m105 -28 c-45 -17 -60 -22 -78 -26 -11 -2 -24
-8 -31 -13 -6 -5 -17 -5 -24 0 -10 6 2 13 39 24 30 9 62 16 72 16 10 0 18 5
18 11 0 5 5 7 12 3 8 -5 6 -10 -8 -15z m-180 -45 c16 -6 12 -24 -5 -24 -6 0
-7 6 -3 13 5 8 2 8 -9 -2 -15 -12 -17 -11 -17 3 0 17 9 20 34 10z m-91 -59
c-3 -9 -8 -14 -10 -11 -3 3 -2 9 2 15 9 16 15 13 8 -4z m-153 -284 c-11 -21
-30 -37 -30 -25 0 8 30 44 37 44 2 0 -1 -9 -7 -19z"/>
<path d="M1510 1444 c0 -8 5 -12 10 -9 6 3 10 10 10 16 0 5 -4 9 -10 9 -5 0
-10 -7 -10 -16z"/>
<path d="M1689 1443 c-13 -16 -12 -17 4 -4 9 7 17 15 17 17 0 8 -8 3 -21 -13z"/>
<path d="M2054 1450 c-5 -5 -26 -11 -47 -12 -20 -2 -37 -8 -37 -15 0 -15 17
-26 22 -13 1 5 18 14 36 19 36 11 40 3 22 -43 -5 -14 -6 -26 -1 -26 11 0 21
25 21 51 0 10 6 19 13 19 49 2 135 14 152 21 21 10 -92 4 -149 -7 -19 -4 -26
-3 -22 5 9 14 3 14 -10 1z"/>
<path d="M1270 1431 c-14 -26 -13 -38 2 -23 11 11 20 42 12 42 -2 0 -8 -9 -14
-19z"/>
<path d="M1326 1434 c-3 -8 -10 -12 -16 -9 -7 4 -7 -2 0 -19 8 -21 7 -24 -7
-19 -12 5 -14 3 -8 -8 5 -8 10 -31 11 -52 1 -24 11 -48 24 -62 19 -20 19 -23
5 -29 -9 -3 -30 -6 -45 -6 -16 0 -32 -5 -36 -11 -5 -8 1 -10 20 -7 15 3 26 1
26 -5 0 -7 4 -7 12 1 8 8 53 12 138 12 69 0 132 5 140 10 11 7 1 10 -35 10
-27 0 -45 4 -40 8 18 13 38 42 29 42 -5 0 -21 -11 -35 -24 -22 -20 -37 -25
-84 -25 -32 0 -63 6 -70 12 -14 15 -27 59 -14 51 8 -5 13 9 10 29 0 4 4 7 10
7 6 0 8 8 4 19 -5 17 12 33 39 35 5 1 11 7 14 14 6 18 -19 15 -35 -5 -13 -17
-14 -16 -10 5 4 15 1 22 -6 19 -7 -2 -12 -12 -13 -23 -1 -27 -21 -71 -34 -79
-9 -6 -9 -2 -1 12 5 11 13 41 16 66 7 47 2 61 -9 31z"/>
<path d="M1777 1431 c-4 -17 -3 -21 5 -13 5 5 8 16 6 23 -3 8 -7 3 -11 -10z"/>
<path d="M2390 1443 c-14 -3 -34 -14 -46 -24 -12 -11 -38 -22 -58 -26 -20 -3
-36 -9 -36 -14 0 -4 -17 -11 -37 -14 -21 -4 -47 -10 -58 -15 -38 -17 -70 -24
-93 -21 -13 1 -31 -4 -40 -12 -9 -8 -24 -17 -32 -21 -15 -6 -6 -5 90 14 77 14
163 41 221 70 31 15 72 33 92 39 20 7 39 17 42 22 6 9 -2 10 -45 2z"/>
<path d="M580 1429 c0 -6 9 -13 20 -16 11 -3 17 -9 14 -14 -3 -5 0 -9 5 -9 17
0 13 15 -7 33 -22 20 -32 22 -32 6z"/>
<path d="M850 1430 c0 -12 8 -12 35 0 18 8 17 9 -7 9 -16 1 -28 -3 -28 -9z"/>
<path d="M907 1416 c-4 -10 1 -12 16 -9 22 4 22 4 2 -12 -20 -17 -20 -17 2
-11 18 6 21 4 18 -13 -2 -12 1 -21 7 -21 5 0 8 7 4 15 -3 8 2 19 12 24 12 7
14 13 6 21 -18 18 -61 22 -67 6z"/>
<path d="M830 1400 c8 -15 8 -20 -2 -20 -9 0 -9 -3 2 -10 10 -6 20 -3 32 10
25 27 22 35 -12 37 -27 2 -29 0 -20 -17z"/>
<path d="M1440 1410 c-12 -8 -12 -10 5 -11 19 0 19 -1 1 -8 -18 -7 -17 -9 8
-28 18 -14 22 -23 14 -26 -8 -4 -7 -6 4 -6 26 -1 31 17 8 29 -15 8 -19 17 -14
35 7 26 -1 31 -26 15z"/>
<path d="M2170 1405 c0 -8 7 -15 16 -15 9 0 12 5 8 12 -5 8 -2 9 9 5 10 -3 17
-2 17 3 0 6 -11 10 -25 10 -16 0 -25 -6 -25 -15z"/>
<path d="M801 1394 c0 -11 3 -14 6 -6 3 7 2 16 -1 19 -3 4 -6 -2 -5 -13z"/>
<path d="M1935 1401 c-6 -11 13 -26 22 -17 4 3 1 6 -6 6 -7 0 -9 5 -6 10 3 6
4 10 1 10 -3 0 -7 -4 -11 -9z"/>
<path d="M1570 1386 c0 -9 0 -18 0 -21 0 -3 -4 -16 -10 -30 -13 -34 2 -32 18
2 15 33 15 50 2 58 -5 3 -10 -1 -10 -9z"/>
<path d="M1225 1380 c3 -5 8 -10 11 -10 2 0 4 5 4 10 0 6 -5 10 -11 10 -5 0
-7 -4 -4 -10z"/>
<path d="M1256 1374 c-9 -22 -8 -23 14 -21 24 2 24 4 6 22 -12 12 -15 12 -20
-1z"/>
<path d="M2090 1386 c0 -2 7 -6 15 -10 8 -3 15 -1 15 4 0 6 -7 10 -15 10 -8 0
-15 -2 -15 -4z"/>
<path d="M760 1372 c0 -14 47 -62 61 -62 5 0 9 -4 9 -9 0 -5 5 -22 11 -38 15
-36 11 -119 -7 -189 -16 -64 -18 -141 -4 -146 15 -5 -14 -83 -44 -123 -34 -44
-157 -288 -138 -273 14 11 15 10 8 -7 -5 -11 -10 -44 -12 -73 -1 -29 -5 -56
-8 -60 -8 -13 11 -35 23 -28 6 4 11 18 11 30 0 13 8 30 17 37 11 10 14 10 9 1
-4 -6 -2 -12 3 -12 7 0 11 23 11 56 0 39 3 53 12 48 8 -5 9 -2 5 9 -8 21 9 67
71 196 28 57 48 109 45 114 -3 6 -1 7 5 3 7 -4 19 9 32 33 25 49 25 57 2 57
-14 0 -17 -6 -14 -23 2 -13 0 -23 -5 -23 -5 0 -8 16 -8 35 1 19 -1 35 -5 35
-10 0 -8 30 2 31 4 1 14 2 21 3 6 1 17 -2 24 -6 8 -7 11 9 11 57 0 44 -4 65
-12 62 -6 -2 -13 -14 -14 -26 -3 -16 0 -21 8 -16 9 5 10 1 5 -16 -4 -13 -8
-24 -9 -24 0 0 -12 -6 -26 -14 -22 -12 -23 -12 -13 0 6 8 15 43 19 79 6 51 9
59 15 40 4 -14 7 -19 8 -12 1 7 5 11 9 8 4 -2 9 4 9 15 1 11 -1 17 -5 15 -4
-3 -8 4 -8 14 0 9 6 17 13 16 18 -3 29 -16 13 -16 -10 0 -10 -3 0 -15 8 -9 10
-34 6 -72 -4 -47 -3 -53 5 -33 16 36 5 177 -17 223 -19 39 -46 52 -37 17 3
-12 0 -20 -7 -20 -8 0 -11 12 -8 35 2 19 0 35 -4 35 -4 0 -8 -4 -8 -10 0 -5
-4 -10 -10 -10 -5 0 -10 8 -10 18 0 13 -2 14 -9 3 -7 -11 -10 -9 -16 8 -3 12
-11 18 -17 15 -6 -4 -14 0 -19 7 -7 11 -9 11 -9 1z m150 -136 c-14 -14 -24 0
-16 21 6 15 8 15 16 3 6 -9 5 -19 0 -24z m10 -26 c0 -5 -4 -10 -9 -10 -6 0
-13 5 -16 10 -3 6 1 10 9 10 9 0 16 -4 16 -10z m-224 -758 c-12 -11 -18 7 -10
30 l8 23 4 -23 c2 -13 1 -26 -2 -30z"/>
<path d="M1403 1372 c-15 -10 -27 -72 -14 -72 9 0 14 20 10 46 0 4 5 10 12 15
8 4 11 10 8 13 -2 3 -10 2 -16 -2z"/>
<path d="M865 1360 c-3 -6 1 -7 9 -4 18 7 21 14 7 14 -6 0 -13 -4 -16 -10z"/>
<path d="M1963 1353 c9 -2 23 -2 30 0 6 3 -1 5 -18 5 -16 0 -22 -2 -12 -5z"/>
<path d="M884 1338 c-5 -8 -2 -9 10 -5 12 5 20 -1 28 -18 13 -29 21 -31 38
-10 17 20 5 32 -15 15 -12 -10 -15 -10 -15 3 0 8 -7 18 -16 21 -21 8 -22 8
-30 -6z"/>
<path d="M1510 1326 c-31 -21 -37 -22 -51 -10 -14 13 -20 11 -52 -21 -19 -19
-33 -35 -32 -35 20 0 55 23 55 36 0 11 5 14 16 10 9 -3 18 -6 21 -6 3 0 -4 -9
-17 -20 -13 -11 -21 -23 -17 -26 9 -9 47 16 47 31 0 8 5 15 11 15 5 0 7 -5 3
-12 -4 -7 -3 -8 5 -4 6 4 9 11 7 15 -3 4 6 14 19 21 14 7 25 17 25 22 0 11 -2
11 -40 -16z"/>
<path d="M1900 1339 c0 -5 5 -7 10 -4 6 3 10 8 10 11 0 2 -4 4 -10 4 -5 0 -10
-5 -10 -11z"/>
<path d="M1687 1319 c-3 -12 -10 -18 -16 -14 -6 3 -11 -1 -11 -9 0 -10 6 -13
15 -10 8 4 15 10 15 15 0 5 7 9 15 9 9 0 12 6 9 15 -9 21 -21 19 -27 -6z"/>
<path d="M1065 1310 c3 -5 8 -10 11 -10 2 0 4 5 4 10 0 6 -5 10 -11 10 -5 0
-7 -4 -4 -10z"/>
<path d="M1098 1313 c7 -3 16 -2 19 1 4 3 -2 6 -13 5 -11 0 -14 -3 -6 -6z"/>
<path d="M1043 1292 c0 -10 9 -18 19 -18 16 0 16 2 1 18 -9 10 -17 18 -19 18
-1 0 -2 -8 -1 -18z"/>
<path d="M1874 1290 c-6 -6 -24 -12 -40 -14 -16 -2 -32 -4 -36 -5 -5 0 -8 -6
-8 -12 0 -8 4 -8 13 -2 6 5 26 9 42 8 17 -1 32 2 35 6 4 5 22 10 42 11 20 2
34 6 31 11 -7 11 -67 9 -79 -3z"/>
<path d="M1253 1280 c-13 -5 -23 -15 -23 -21 0 -7 -3 -10 -6 -6 -4 3 -19 0
-35 -8 -34 -18 -42 -19 -33 -2 5 7 0 6 -11 -3 -18 -14 -17 -15 4 -18 12 -2 41
6 64 17 24 12 50 21 58 21 9 0 16 7 16 15 0 17 -3 17 -34 5z"/>
<path d="M1240 1235 c-33 -19 -21 -19 21 0 19 8 27 14 19 14 -8 0 -26 -6 -40
-14z"/>
<path d="M2960 1231 c0 -5 5 -13 10 -16 6 -3 10 -2 10 4 0 5 -4 13 -10 16 -5
3 -10 2 -10 -4z"/>
<path d="M1236 1197 c3 -10 9 -15 12 -12 3 3 0 11 -7 18 -10 9 -11 8 -5 -6z"/>
<path d="M1773 1170 c1 -11 2 -20 3 -20 1 0 10 3 18 6 13 5 14 9 5 20 -16 20
-28 17 -26 -6z"/>
<path d="M1815 1180 c3 -5 8 -10 11 -10 2 0 4 5 4 10 0 6 -5 10 -11 10 -5 0
-7 -4 -4 -10z"/>
<path d="M921 1004 c0 -11 3 -14 6 -6 3 7 2 16 -1 19 -3 4 -6 -2 -5 -13z"/>
<path d="M862 968 c3 -7 13 -15 24 -17 10 -2 22 -8 25 -13 4 -6 9 -6 12 -1 9
14 -6 29 -36 37 -22 5 -28 4 -25 -6z"/>
<path d="M676 382 c-4 -26 -13 -45 -26 -52 -11 -6 -20 -16 -20 -22 0 -9 3 -9
12 0 18 18 27 15 21 -8 -7 -25 18 -36 46 -21 13 7 18 17 14 28 -6 14 -7 14
-19 -1 -8 -12 -14 -14 -19 -6 -14 23 26 36 57 19 12 -6 18 -6 18 0 0 6 -11 13
-25 17 -17 4 -25 13 -25 28 0 12 -6 30 -13 41 -13 16 -15 14 -21 -23z"/>
<path d="M1580 70 c0 -5 5 -10 10 -10 6 0 10 5 10 10 0 6 -4 10 -10 10 -5 0
-10 -4 -10 -10z"/>
</g>
</svg>
